<svg width="20" height="20" viewBox="0 0 20 20" fill="none" xmlns="http://www.w3.org/2000/svg">
    <path d="M5.36412 6.96571L1.65181 4.49636C1.40488 4.87096 1.1812 5.2646 0.984299 5.67649L2.92212 6.96571H5.36412ZM18.3331 4.47699C18.0838 4.1003 17.8085 3.74055 17.5097 3.39984L13.0721 6.35112V6.96571H14.592L18.3331 4.47699ZM1.67925 15.5431C1.9294 15.919 2.20522 16.2779 2.5046 16.6176L6.90185 13.6932V13.1359H5.29892L1.67925 15.5431ZM19.8455 8.25058H11.7871V0.164836C10.5654 -0.0582127 9.34918 -0.0483676 8.187 0.166611V8.25058H0.157656C-0.0608671 9.47218 -0.0461806 10.6881 0.172827 11.8494H8.187V19.8323C9.40841 20.0587 10.6246 20.0518 11.7871 19.8401V11.8494H19.8252C20.056 10.6291 20.0528 9.41327 19.8455 8.25058ZM14.6778 13.1359L18.3159 15.5553C18.5651 15.1822 18.7905 14.7897 18.9898 14.3792L17.1197 13.1357L14.6778 13.1359Z" fill="#EF3827"/>
</svg>
